<?xml version="1.0" encoding="UTF-8" standalone="no"?>
<!DOCTYPE svg PUBLIC "-//W3C//DTD SVG 1.1//EN"
 "http://www.w3.org/Graphics/SVG/1.1/DTD/svg11.dtd">
<!-- Generated by graphviz version 2.38.0 (20140413.2041)
 -->
<!-- Title: snakemake_dag Pages: 1 -->
<svg width="1441pt" height="481pt"
 viewBox="0.00 0.00 1441.28 481.00" xmlns="http://www.w3.org/2000/svg" xmlns:xlink="http://www.w3.org/1999/xlink">
<g id="graph0" class="graph" transform="scale(1 1) rotate(0) translate(4 477)">
<title>snakemake_dag</title>
<polygon fill="white" stroke="none" points="-4,4 -4,-477 1437.28,-477 1437.28,4 -4,4"/>
<!-- 0 -->
<g id="node1" class="node"><title>0</title>
<path fill="none" stroke="#d85656" stroke-width="2" d="M572.609,-401C572.609,-401 490.609,-401 490.609,-401 484.609,-401 478.609,-395 478.609,-389 478.609,-389 478.609,-372 478.609,-372 478.609,-366 484.609,-360 490.609,-360 490.609,-360 572.609,-360 572.609,-360 578.609,-360 584.609,-366 584.609,-372 584.609,-372 584.609,-389 584.609,-389 584.609,-395 578.609,-401 572.609,-401"/>
<text text-anchor="middle" x="531.609" y="-389" font-family="sans" font-size="10.00">make_sample_list</text>
<text text-anchor="middle" x="531.609" y="-378" font-family="sans" font-size="10.00">repl: 2</text>
<text text-anchor="middle" x="531.609" y="-367" font-family="sans" font-size="10.00">type: WT</text>
</g>
<!-- 22 -->
<g id="node23" class="node"><title>22</title>
<path fill="none" stroke="#97d856" stroke-width="2" d="M522.609,-252C522.609,-252 492.609,-252 492.609,-252 486.609,-252 480.609,-246 480.609,-240 480.609,-240 480.609,-228 480.609,-228 480.609,-222 486.609,-216 492.609,-216 492.609,-216 522.609,-216 522.609,-216 528.609,-216 534.609,-222 534.609,-228 534.609,-228 534.609,-240 534.609,-240 534.609,-246 528.609,-252 522.609,-252"/>
<text text-anchor="middle" x="507.609" y="-231.5" font-family="sans" font-size="10.00">multiqc</text>
</g>
<!-- 0&#45;&gt;22 -->
<g id="edge38" class="edge"><title>0&#45;&gt;22</title>
<path fill="none" stroke="grey" stroke-width="2" d="M532.889,-359.993C533.666,-341.31 533.689,-312.431 528.609,-288 526.755,-279.085 523.522,-269.733 520.139,-261.409"/>
<polygon fill="grey" stroke="grey" stroke-width="2" points="523.343,-259.999 516.174,-252.198 516.913,-262.767 523.343,-259.999"/>
</g>
<!-- 41 -->
<g id="node42" class="node"><title>41</title>
<path fill="none" stroke="#56d89a" stroke-width="2" d="M507.609,-324C507.609,-324 437.609,-324 437.609,-324 431.609,-324 425.609,-318 425.609,-312 425.609,-312 425.609,-300 425.609,-300 425.609,-294 431.609,-288 437.609,-288 437.609,-288 507.609,-288 507.609,-288 513.609,-288 519.609,-294 519.609,-300 519.609,-300 519.609,-312 519.609,-312 519.609,-318 513.609,-324 507.609,-324"/>
<text text-anchor="middle" x="472.609" y="-303.5" font-family="sans" font-size="10.00">download_fastq</text>
</g>
<!-- 0&#45;&gt;41 -->
<g id="edge72" class="edge"><title>0&#45;&gt;41</title>
<path fill="none" stroke="grey" stroke-width="2" d="M515.487,-359.689C508.59,-351.215 500.457,-341.22 493.137,-332.226"/>
<polygon fill="grey" stroke="grey" stroke-width="2" points="495.73,-329.867 486.703,-324.319 490.301,-334.285 495.73,-329.867"/>
</g>
<!-- 1 -->
<g id="node2" class="node"><title>1</title>
<path fill="none" stroke="#97d856" stroke-width="2" stroke-dasharray="5,2" d="M1254.61,-252C1254.61,-252 1224.61,-252 1224.61,-252 1218.61,-252 1212.61,-246 1212.61,-240 1212.61,-240 1212.61,-228 1212.61,-228 1212.61,-222 1218.61,-216 1224.61,-216 1224.61,-216 1254.61,-216 1254.61,-216 1260.61,-216 1266.61,-222 1266.61,-228 1266.61,-228 1266.61,-240 1266.61,-240 1266.61,-246 1260.61,-252 1254.61,-252"/>
<text text-anchor="middle" x="1239.61" y="-231.5" font-family="sans" font-size="10.00">multiqc</text>
</g>
<!-- 26 -->
<g id="node27" class="node"><title>26</title>
<path fill="none" stroke="#56d8d8" stroke-width="2" stroke-dasharray="5,2" d="M1210.61,-180C1210.61,-180 1158.61,-180 1158.61,-180 1152.61,-180 1146.61,-174 1146.61,-168 1146.61,-168 1146.61,-156 1146.61,-156 1146.61,-150 1152.61,-144 1158.61,-144 1158.61,-144 1210.61,-144 1210.61,-144 1216.61,-144 1222.61,-150 1222.61,-156 1222.61,-156 1222.61,-168 1222.61,-168 1222.61,-174 1216.61,-180 1210.61,-180"/>
<text text-anchor="middle" x="1184.61" y="-159.5" font-family="sans" font-size="10.00">align_fastqc</text>
</g>
<!-- 1&#45;&gt;26 -->
<g id="edge47" class="edge"><title>1&#45;&gt;26</title>
<path fill="none" stroke="grey" stroke-width="2" d="M1226.01,-215.697C1219.49,-207.389 1211.54,-197.277 1204.36,-188.141"/>
<polygon fill="grey" stroke="grey" stroke-width="2" points="1206.98,-185.805 1198.05,-180.104 1201.47,-190.13 1206.98,-185.805"/>
</g>
<!-- 2 -->
<g id="node3" class="node"><title>2</title>
<path fill="none" stroke="#d85656" stroke-width="2" stroke-dasharray="5,2" d="M1413.61,-401C1413.61,-401 1331.61,-401 1331.61,-401 1325.61,-401 1319.61,-395 1319.61,-389 1319.61,-389 1319.61,-372 1319.61,-372 1319.61,-366 1325.61,-360 1331.61,-360 1331.61,-360 1413.61,-360 1413.61,-360 1419.61,-360 1425.61,-366 1425.61,-372 1425.61,-372 1425.61,-389 1425.61,-389 1425.61,-395 1419.61,-401 1413.61,-401"/>
<text text-anchor="middle" x="1372.61" y="-389" font-family="sans" font-size="10.00">make_sample_list</text>
<text text-anchor="middle" x="1372.61" y="-378" font-family="sans" font-size="10.00">repl: 4</text>
<text text-anchor="middle" x="1372.61" y="-367" font-family="sans" font-size="10.00">type: WT</text>
</g>
<!-- 5 -->
<g id="node6" class="node"><title>5</title>
<path fill="none" stroke="#97d856" stroke-width="2" stroke-dasharray="5,2" d="M1388.61,-252C1388.61,-252 1358.61,-252 1358.61,-252 1352.61,-252 1346.61,-246 1346.61,-240 1346.61,-240 1346.61,-228 1346.61,-228 1346.61,-222 1352.61,-216 1358.61,-216 1358.61,-216 1388.61,-216 1388.61,-216 1394.61,-216 1400.61,-222 1400.61,-228 1400.61,-228 1400.61,-240 1400.61,-240 1400.61,-246 1394.61,-252 1388.61,-252"/>
<text text-anchor="middle" x="1373.61" y="-231.5" font-family="sans" font-size="10.00">multiqc</text>
</g>
<!-- 2&#45;&gt;5 -->
<g id="edge7" class="edge"><title>2&#45;&gt;5</title>
<path fill="none" stroke="grey" stroke-width="2" d="M1400.53,-359.752C1411.46,-350.321 1422.76,-338.024 1428.61,-324 1434.76,-309.232 1434.87,-302.725 1428.61,-288 1423.87,-276.862 1415.52,-266.93 1406.74,-258.759"/>
<polygon fill="grey" stroke="grey" stroke-width="2" points="1408.84,-255.946 1398.99,-252.045 1404.26,-261.238 1408.84,-255.946"/>
</g>
<!-- 13 -->
<g id="node14" class="node"><title>13</title>
<path fill="none" stroke="#56d89a" stroke-width="2" stroke-dasharray="5,2" d="M1407.61,-324C1407.61,-324 1337.61,-324 1337.61,-324 1331.61,-324 1325.61,-318 1325.61,-312 1325.61,-312 1325.61,-300 1325.61,-300 1325.61,-294 1331.61,-288 1337.61,-288 1337.61,-288 1407.61,-288 1407.61,-288 1413.61,-288 1419.61,-294 1419.61,-300 1419.61,-300 1419.61,-312 1419.61,-312 1419.61,-318 1413.61,-324 1407.61,-324"/>
<text text-anchor="middle" x="1372.61" y="-303.5" font-family="sans" font-size="10.00">download_fastq</text>
</g>
<!-- 2&#45;&gt;13 -->
<g id="edge25" class="edge"><title>2&#45;&gt;13</title>
<path fill="none" stroke="grey" stroke-width="2" d="M1372.61,-359.689C1372.61,-351.907 1372.61,-342.842 1372.61,-334.447"/>
<polygon fill="grey" stroke="grey" stroke-width="2" points="1376.11,-334.319 1372.61,-324.319 1369.11,-334.32 1376.11,-334.319"/>
</g>
<!-- 3 -->
<g id="node4" class="node"><title>3</title>
<path fill="none" stroke="#56d89a" stroke-width="2" stroke-dasharray="5,2" d="M995.609,-324C995.609,-324 925.609,-324 925.609,-324 919.609,-324 913.609,-318 913.609,-312 913.609,-312 913.609,-300 913.609,-300 913.609,-294 919.609,-288 925.609,-288 925.609,-288 995.609,-288 995.609,-288 1001.61,-288 1007.61,-294 1007.61,-300 1007.61,-300 1007.61,-312 1007.61,-312 1007.61,-318 1001.61,-324 995.609,-324"/>
<text text-anchor="middle" x="960.609" y="-303.5" font-family="sans" font-size="10.00">download_fastq</text>
</g>
<!-- 19 -->
<g id="node20" class="node"><title>19</title>
<path fill="none" stroke="#56d8d8" stroke-width="2" stroke-dasharray="5,2" d="M946.609,-180C946.609,-180 894.609,-180 894.609,-180 888.609,-180 882.609,-174 882.609,-168 882.609,-168 882.609,-156 882.609,-156 882.609,-150 888.609,-144 894.609,-144 894.609,-144 946.609,-144 946.609,-144 952.609,-144 958.609,-150 958.609,-156 958.609,-156 958.609,-168 958.609,-168 958.609,-174 952.609,-180 946.609,-180"/>
<text text-anchor="middle" x="920.609" y="-159.5" font-family="sans" font-size="10.00">align_fastqc</text>
</g>
<!-- 3&#45;&gt;19 -->
<g id="edge35" class="edge"><title>3&#45;&gt;19</title>
<path fill="none" stroke="grey" stroke-width="2" d="M964.133,-287.734C967.12,-269.399 969.752,-239.835 961.609,-216 958.167,-205.927 951.948,-196.284 945.377,-188.05"/>
<polygon fill="grey" stroke="grey" stroke-width="2" points="947.933,-185.654 938.778,-180.323 942.61,-190.2 947.933,-185.654"/>
</g>
<!-- 47 -->
<g id="node48" class="node"><title>47</title>
<path fill="none" stroke="#97d856" stroke-width="2" stroke-dasharray="5,2" d="M940.609,-252C940.609,-252 910.609,-252 910.609,-252 904.609,-252 898.609,-246 898.609,-240 898.609,-240 898.609,-228 898.609,-228 898.609,-222 904.609,-216 910.609,-216 910.609,-216 940.609,-216 940.609,-216 946.609,-216 952.609,-222 952.609,-228 952.609,-228 952.609,-240 952.609,-240 952.609,-246 946.609,-252 940.609,-252"/>
<text text-anchor="middle" x="925.609" y="-231.5" font-family="sans" font-size="10.00">multiqc</text>
</g>
<!-- 3&#45;&gt;47 -->
<g id="edge79" class="edge"><title>3&#45;&gt;47</title>
<path fill="none" stroke="grey" stroke-width="2" d="M951.957,-287.697C947.973,-279.728 943.159,-270.1 938.741,-261.264"/>
<polygon fill="grey" stroke="grey" stroke-width="2" points="941.764,-259.483 934.161,-252.104 935.503,-262.614 941.764,-259.483"/>
</g>
<!-- 4 -->
<g id="node5" class="node"><title>4</title>
<path fill="none" stroke="#59d856" stroke-width="2" stroke-dasharray="5,2" d="M158.609,-108C158.609,-108 66.6088,-108 66.6088,-108 60.6088,-108 54.6088,-102 54.6088,-96 54.6088,-96 54.6088,-84 54.6088,-84 54.6088,-78 60.6088,-72 66.6088,-72 66.6088,-72 158.609,-72 158.609,-72 164.609,-72 170.609,-78 170.609,-84 170.609,-84 170.609,-96 170.609,-96 170.609,-102 164.609,-108 158.609,-108"/>
<text text-anchor="middle" x="112.609" y="-87.5" font-family="sans" font-size="10.00">make_indexed_bam</text>
</g>
<!-- 11 -->
<g id="node12" class="node"><title>11</title>
<path fill="none" stroke="#d89556" stroke-width="2" d="M730.609,-36C730.609,-36 700.609,-36 700.609,-36 694.609,-36 688.609,-30 688.609,-24 688.609,-24 688.609,-12 688.609,-12 688.609,-6 694.609,-0 700.609,-0 700.609,-0 730.609,-0 730.609,-0 736.609,-0 742.609,-6 742.609,-12 742.609,-12 742.609,-24 742.609,-24 742.609,-30 736.609,-36 730.609,-36"/>
<text text-anchor="middle" x="715.609" y="-15.5" font-family="sans" font-size="10.00">all</text>
</g>
<!-- 4&#45;&gt;11 -->
<g id="edge16" class="edge"><title>4&#45;&gt;11</title>
<path fill="none" stroke="grey" stroke-width="2" d="M170.963,-73.6454C173.878,-73.0507 176.772,-72.4973 179.609,-72 365.064,-39.4922 590.373,-25.3337 678.115,-20.7703"/>
<polygon fill="grey" stroke="grey" stroke-width="2" points="678.554,-24.2526 688.363,-20.2487 678.198,-17.2616 678.554,-24.2526"/>
</g>
<!-- 24 -->
<g id="node25" class="node"><title>24</title>
<path fill="none" stroke="#56d8d8" stroke-width="2" stroke-dasharray="5,2" d="M1344.61,-180C1344.61,-180 1292.61,-180 1292.61,-180 1286.61,-180 1280.61,-174 1280.61,-168 1280.61,-168 1280.61,-156 1280.61,-156 1280.61,-150 1286.61,-144 1292.61,-144 1292.61,-144 1344.61,-144 1344.61,-144 1350.61,-144 1356.61,-150 1356.61,-156 1356.61,-156 1356.61,-168 1356.61,-168 1356.61,-174 1350.61,-180 1344.61,-180"/>
<text text-anchor="middle" x="1318.61" y="-159.5" font-family="sans" font-size="10.00">align_fastqc</text>
</g>
<!-- 5&#45;&gt;24 -->
<g id="edge42" class="edge"><title>5&#45;&gt;24</title>
<path fill="none" stroke="grey" stroke-width="2" d="M1360.01,-215.697C1353.49,-207.389 1345.54,-197.277 1338.36,-188.141"/>
<polygon fill="grey" stroke="grey" stroke-width="2" points="1340.98,-185.805 1332.05,-180.104 1335.47,-190.13 1340.98,-185.805"/>
</g>
<!-- 6 -->
<g id="node7" class="node"><title>6</title>
<path fill="none" stroke="#d85656" stroke-width="2" stroke-dasharray="5,2" d="M1263.61,-401C1263.61,-401 1181.61,-401 1181.61,-401 1175.61,-401 1169.61,-395 1169.61,-389 1169.61,-389 1169.61,-372 1169.61,-372 1169.61,-366 1175.61,-360 1181.61,-360 1181.61,-360 1263.61,-360 1263.61,-360 1269.61,-360 1275.61,-366 1275.61,-372 1275.61,-372 1275.61,-389 1275.61,-389 1275.61,-395 1269.61,-401 1263.61,-401"/>
<text text-anchor="middle" x="1222.61" y="-389" font-family="sans" font-size="10.00">make_sample_list</text>
<text text-anchor="middle" x="1222.61" y="-378" font-family="sans" font-size="10.00">repl: 5</text>
<text text-anchor="middle" x="1222.61" y="-367" font-family="sans" font-size="10.00">type: WT</text>
</g>
<!-- 6&#45;&gt;1 -->
<g id="edge3" class="edge"><title>6&#45;&gt;1</title>
<path fill="none" stroke="grey" stroke-width="2" d="M1250.53,-359.752C1261.46,-350.321 1272.76,-338.024 1278.61,-324 1284.76,-309.232 1283.6,-303.202 1278.61,-288 1275.3,-277.906 1269.24,-268.151 1262.88,-259.821"/>
<polygon fill="grey" stroke="grey" stroke-width="2" points="1265.53,-257.54 1256.5,-252.007 1260.11,-261.967 1265.53,-257.54"/>
</g>
<!-- 9 -->
<g id="node10" class="node"><title>9</title>
<path fill="none" stroke="#56d89a" stroke-width="2" stroke-dasharray="5,2" d="M1257.61,-324C1257.61,-324 1187.61,-324 1187.61,-324 1181.61,-324 1175.61,-318 1175.61,-312 1175.61,-312 1175.61,-300 1175.61,-300 1175.61,-294 1181.61,-288 1187.61,-288 1187.61,-288 1257.61,-288 1257.61,-288 1263.61,-288 1269.61,-294 1269.61,-300 1269.61,-300 1269.61,-312 1269.61,-312 1269.61,-318 1263.61,-324 1257.61,-324"/>
<text text-anchor="middle" x="1222.61" y="-303.5" font-family="sans" font-size="10.00">download_fastq</text>
</g>
<!-- 6&#45;&gt;9 -->
<g id="edge12" class="edge"><title>6&#45;&gt;9</title>
<path fill="none" stroke="grey" stroke-width="2" d="M1222.61,-359.689C1222.61,-351.907 1222.61,-342.842 1222.61,-334.447"/>
<polygon fill="grey" stroke="grey" stroke-width="2" points="1226.11,-334.319 1222.61,-324.319 1219.11,-334.32 1226.11,-334.319"/>
</g>
<!-- 7 -->
<g id="node8" class="node"><title>7</title>
<path fill="none" stroke="#56d89a" stroke-width="2" stroke-dasharray="5,2" d="M1145.61,-324C1145.61,-324 1075.61,-324 1075.61,-324 1069.61,-324 1063.61,-318 1063.61,-312 1063.61,-312 1063.61,-300 1063.61,-300 1063.61,-294 1069.61,-288 1075.61,-288 1075.61,-288 1145.61,-288 1145.61,-288 1151.61,-288 1157.61,-294 1157.61,-300 1157.61,-300 1157.61,-312 1157.61,-312 1157.61,-318 1151.61,-324 1145.61,-324"/>
<text text-anchor="middle" x="1110.61" y="-303.5" font-family="sans" font-size="10.00">download_fastq</text>
</g>
<!-- 14 -->
<g id="node15" class="node"><title>14</title>
<path fill="none" stroke="#97d856" stroke-width="2" stroke-dasharray="5,2" d="M1065.61,-252C1065.61,-252 1035.61,-252 1035.61,-252 1029.61,-252 1023.61,-246 1023.61,-240 1023.61,-240 1023.61,-228 1023.61,-228 1023.61,-222 1029.61,-216 1035.61,-216 1035.61,-216 1065.61,-216 1065.61,-216 1071.61,-216 1077.61,-222 1077.61,-228 1077.61,-228 1077.61,-240 1077.61,-240 1077.61,-246 1071.61,-252 1065.61,-252"/>
<text text-anchor="middle" x="1050.61" y="-231.5" font-family="sans" font-size="10.00">multiqc</text>
</g>
<!-- 7&#45;&gt;14 -->
<g id="edge27" class="edge"><title>7&#45;&gt;14</title>
<path fill="none" stroke="grey" stroke-width="2" d="M1095.78,-287.697C1088.58,-279.305 1079.81,-269.07 1071.92,-259.861"/>
<polygon fill="grey" stroke="grey" stroke-width="2" points="1074.43,-257.419 1065.27,-252.104 1069.12,-261.975 1074.43,-257.419"/>
</g>
<!-- 49 -->
<g id="node50" class="node"><title>49</title>
<path fill="none" stroke="#56d8d8" stroke-width="2" stroke-dasharray="5,2" d="M1076.61,-180C1076.61,-180 1024.61,-180 1024.61,-180 1018.61,-180 1012.61,-174 1012.61,-168 1012.61,-168 1012.61,-156 1012.61,-156 1012.61,-150 1018.61,-144 1024.61,-144 1024.61,-144 1076.61,-144 1076.61,-144 1082.61,-144 1088.61,-150 1088.61,-156 1088.61,-156 1088.61,-168 1088.61,-168 1088.61,-174 1082.61,-180 1076.61,-180"/>
<text text-anchor="middle" x="1050.61" y="-159.5" font-family="sans" font-size="10.00">align_fastqc</text>
</g>
<!-- 7&#45;&gt;49 -->
<g id="edge85" class="edge"><title>7&#45;&gt;49</title>
<path fill="none" stroke="grey" stroke-width="2" d="M1107.71,-287.684C1104.24,-269.309 1097.48,-239.71 1086.61,-216 1082.27,-206.545 1076.3,-196.925 1070.47,-188.523"/>
<polygon fill="grey" stroke="grey" stroke-width="2" points="1073.2,-186.329 1064.51,-180.266 1067.52,-190.424 1073.2,-186.329"/>
</g>
<!-- 8 -->
<g id="node9" class="node"><title>8</title>
<path fill="none" stroke="#d85656" stroke-width="2" stroke-dasharray="5,2" d="M1076.61,-401C1076.61,-401 994.609,-401 994.609,-401 988.609,-401 982.609,-395 982.609,-389 982.609,-389 982.609,-372 982.609,-372 982.609,-366 988.609,-360 994.609,-360 994.609,-360 1076.61,-360 1076.61,-360 1082.61,-360 1088.61,-366 1088.61,-372 1088.61,-372 1088.61,-389 1088.61,-389 1088.61,-395 1082.61,-401 1076.61,-401"/>
<text text-anchor="middle" x="1035.61" y="-389" font-family="sans" font-size="10.00">make_sample_list</text>
<text text-anchor="middle" x="1035.61" y="-378" font-family="sans" font-size="10.00">repl: 5</text>
<text text-anchor="middle" x="1035.61" y="-367" font-family="sans" font-size="10.00">type: SNF2</text>
</g>
<!-- 8&#45;&gt;7 -->
<g id="edge10" class="edge"><title>8&#45;&gt;7</title>
<path fill="none" stroke="grey" stroke-width="2" d="M1056.1,-359.689C1065.14,-350.955 1075.84,-340.607 1085.36,-331.403"/>
<polygon fill="grey" stroke="grey" stroke-width="2" points="1087.93,-333.786 1092.69,-324.319 1083.07,-328.753 1087.93,-333.786"/>
</g>
<!-- 8&#45;&gt;14 -->
<g id="edge26" class="edge"><title>8&#45;&gt;14</title>
<path fill="none" stroke="grey" stroke-width="2" d="M1037.66,-359.711C1040.28,-334.489 1044.82,-290.76 1047.77,-262.359"/>
<polygon fill="grey" stroke="grey" stroke-width="2" points="1051.26,-262.603 1048.81,-252.296 1044.3,-261.881 1051.26,-262.603"/>
</g>
<!-- 9&#45;&gt;1 -->
<g id="edge2" class="edge"><title>9&#45;&gt;1</title>
<path fill="none" stroke="grey" stroke-width="2" d="M1226.81,-287.697C1228.7,-279.898 1230.99,-270.509 1233.09,-261.829"/>
<polygon fill="grey" stroke="grey" stroke-width="2" points="1236.5,-262.648 1235.45,-252.104 1229.69,-260.996 1236.5,-262.648"/>
</g>
<!-- 9&#45;&gt;26 -->
<g id="edge46" class="edge"><title>9&#45;&gt;26</title>
<path fill="none" stroke="grey" stroke-width="2" d="M1215.68,-287.525C1211.78,-277.284 1207.03,-264.034 1203.61,-252 1197.81,-231.613 1192.87,-208.152 1189.48,-190.438"/>
<polygon fill="grey" stroke="grey" stroke-width="2" points="1192.85,-189.419 1187.58,-180.229 1185.97,-190.701 1192.85,-189.419"/>
</g>
<!-- 10 -->
<g id="node11" class="node"><title>10</title>
<path fill="none" stroke="#59d856" stroke-width="2" stroke-dasharray="5,2" d="M292.609,-108C292.609,-108 200.609,-108 200.609,-108 194.609,-108 188.609,-102 188.609,-96 188.609,-96 188.609,-84 188.609,-84 188.609,-78 194.609,-72 200.609,-72 200.609,-72 292.609,-72 292.609,-72 298.609,-72 304.609,-78 304.609,-84 304.609,-84 304.609,-96 304.609,-96 304.609,-102 298.609,-108 292.609,-108"/>
<text text-anchor="middle" x="246.609" y="-87.5" font-family="sans" font-size="10.00">make_indexed_bam</text>
</g>
<!-- 10&#45;&gt;11 -->
<g id="edge14" class="edge"><title>10&#45;&gt;11</title>
<path fill="none" stroke="grey" stroke-width="2" d="M304.62,-73.8372C307.653,-73.1835 310.663,-72.566 313.609,-72 446.436,-46.4841 606.328,-29.4144 677.836,-22.4856"/>
<polygon fill="grey" stroke="grey" stroke-width="2" points="678.514,-25.9368 688.135,-21.499 677.846,-18.9687 678.514,-25.9368"/>
</g>
<!-- 12 -->
<g id="node13" class="node"><title>12</title>
<path fill="none" stroke="#d85656" stroke-width="2" stroke-dasharray="5,2" d="M944.609,-401C944.609,-401 862.609,-401 862.609,-401 856.609,-401 850.609,-395 850.609,-389 850.609,-389 850.609,-372 850.609,-372 850.609,-366 856.609,-360 862.609,-360 862.609,-360 944.609,-360 944.609,-360 950.609,-360 956.609,-366 956.609,-372 956.609,-372 956.609,-389 956.609,-389 956.609,-395 950.609,-401 944.609,-401"/>
<text text-anchor="middle" x="903.609" y="-389" font-family="sans" font-size="10.00">make_sample_list</text>
<text text-anchor="middle" x="903.609" y="-378" font-family="sans" font-size="10.00">repl: 4</text>
<text text-anchor="middle" x="903.609" y="-367" font-family="sans" font-size="10.00">type: SNF2</text>
</g>
<!-- 12&#45;&gt;3 -->
<g id="edge5" class="edge"><title>12&#45;&gt;3</title>
<path fill="none" stroke="grey" stroke-width="2" d="M919.184,-359.689C925.847,-351.215 933.705,-341.22 940.776,-332.226"/>
<polygon fill="grey" stroke="grey" stroke-width="2" points="943.563,-334.344 946.992,-324.319 938.06,-330.018 943.563,-334.344"/>
</g>
<!-- 12&#45;&gt;47 -->
<g id="edge80" class="edge"><title>12&#45;&gt;47</title>
<path fill="none" stroke="grey" stroke-width="2" d="M901.759,-359.654C900.503,-340.975 899.829,-312.317 904.609,-288 906.365,-279.065 909.571,-269.708 912.958,-261.385"/>
<polygon fill="grey" stroke="grey" stroke-width="2" points="916.183,-262.745 916.941,-252.177 909.759,-259.965 916.183,-262.745"/>
</g>
<!-- 13&#45;&gt;5 -->
<g id="edge8" class="edge"><title>13&#45;&gt;5</title>
<path fill="none" stroke="grey" stroke-width="2" d="M1372.86,-287.697C1372.97,-279.983 1373.1,-270.712 1373.22,-262.112"/>
<polygon fill="grey" stroke="grey" stroke-width="2" points="1376.72,-262.153 1373.36,-252.104 1369.72,-262.053 1376.72,-262.153"/>
</g>
<!-- 13&#45;&gt;24 -->
<g id="edge41" class="edge"><title>13&#45;&gt;24</title>
<path fill="none" stroke="grey" stroke-width="2" d="M1358.85,-287.791C1351.54,-277.853 1342.98,-264.813 1337.61,-252 1329.32,-232.239 1324.48,-208.437 1321.77,-190.422"/>
<polygon fill="grey" stroke="grey" stroke-width="2" points="1325.2,-189.726 1320.37,-180.3 1318.27,-190.685 1325.2,-189.726"/>
</g>
<!-- 14&#45;&gt;49 -->
<g id="edge84" class="edge"><title>14&#45;&gt;49</title>
<path fill="none" stroke="grey" stroke-width="2" d="M1050.61,-215.697C1050.61,-207.983 1050.61,-198.712 1050.61,-190.112"/>
<polygon fill="grey" stroke="grey" stroke-width="2" points="1054.11,-190.104 1050.61,-180.104 1047.11,-190.104 1054.11,-190.104"/>
</g>
<!-- 15 -->
<g id="node16" class="node"><title>15</title>
<path fill="none" stroke="#59d856" stroke-width="2" stroke-dasharray="5,2" d="M426.609,-108C426.609,-108 334.609,-108 334.609,-108 328.609,-108 322.609,-102 322.609,-96 322.609,-96 322.609,-84 322.609,-84 322.609,-78 328.609,-72 334.609,-72 334.609,-72 426.609,-72 426.609,-72 432.609,-72 438.609,-78 438.609,-84 438.609,-84 438.609,-96 438.609,-96 438.609,-102 432.609,-108 426.609,-108"/>
<text text-anchor="middle" x="380.609" y="-87.5" font-family="sans" font-size="10.00">make_indexed_bam</text>
</g>
<!-- 15&#45;&gt;11 -->
<g id="edge17" class="edge"><title>15&#45;&gt;11</title>
<path fill="none" stroke="grey" stroke-width="2" d="M438.668,-74.0673C441.688,-73.3535 444.682,-72.6602 447.609,-72 529.633,-53.4972 626.579,-35.2034 678.442,-25.7029"/>
<polygon fill="grey" stroke="grey" stroke-width="2" points="679.291,-29.106 688.5,-23.8674 678.034,-22.2197 679.291,-29.106"/>
</g>
<!-- 16 -->
<g id="node17" class="node"><title>16</title>
<path fill="none" stroke="#56d8d8" stroke-width="2" stroke-dasharray="5,2" d="M816.609,-180C816.609,-180 764.609,-180 764.609,-180 758.609,-180 752.609,-174 752.609,-168 752.609,-168 752.609,-156 752.609,-156 752.609,-150 758.609,-144 764.609,-144 764.609,-144 816.609,-144 816.609,-144 822.609,-144 828.609,-150 828.609,-156 828.609,-156 828.609,-168 828.609,-168 828.609,-174 822.609,-180 816.609,-180"/>
<text text-anchor="middle" x="790.609" y="-159.5" font-family="sans" font-size="10.00">align_fastqc</text>
</g>
<!-- 23 -->
<g id="node24" class="node"><title>23</title>
<path fill="none" stroke="#59d856" stroke-width="2" stroke-dasharray="5,2" d="M828.609,-108C828.609,-108 736.609,-108 736.609,-108 730.609,-108 724.609,-102 724.609,-96 724.609,-96 724.609,-84 724.609,-84 724.609,-78 730.609,-72 736.609,-72 736.609,-72 828.609,-72 828.609,-72 834.609,-72 840.609,-78 840.609,-84 840.609,-84 840.609,-96 840.609,-96 840.609,-102 834.609,-108 828.609,-108"/>
<text text-anchor="middle" x="782.609" y="-87.5" font-family="sans" font-size="10.00">make_indexed_bam</text>
</g>
<!-- 16&#45;&gt;23 -->
<g id="edge40" class="edge"><title>16&#45;&gt;23</title>
<path fill="none" stroke="grey" stroke-width="2" d="M788.631,-143.697C787.75,-135.983 786.69,-126.712 785.707,-118.112"/>
<polygon fill="grey" stroke="grey" stroke-width="2" points="789.176,-117.642 784.564,-108.104 782.222,-118.437 789.176,-117.642"/>
</g>
<!-- 17 -->
<g id="node18" class="node"><title>17</title>
<path fill="none" stroke="#d85656" stroke-width="2" stroke-dasharray="5,2" d="M283.609,-401C283.609,-401 201.609,-401 201.609,-401 195.609,-401 189.609,-395 189.609,-389 189.609,-389 189.609,-372 189.609,-372 189.609,-366 195.609,-360 201.609,-360 201.609,-360 283.609,-360 283.609,-360 289.609,-360 295.609,-366 295.609,-372 295.609,-372 295.609,-389 295.609,-389 295.609,-395 289.609,-401 283.609,-401"/>
<text text-anchor="middle" x="242.609" y="-389" font-family="sans" font-size="10.00">make_sample_list</text>
<text text-anchor="middle" x="242.609" y="-378" font-family="sans" font-size="10.00">repl: 1</text>
<text text-anchor="middle" x="242.609" y="-367" font-family="sans" font-size="10.00">type: SNF2</text>
</g>
<!-- 25 -->
<g id="node26" class="node"><title>25</title>
<path fill="none" stroke="#97d856" stroke-width="2" stroke-dasharray="5,2" d="M261.609,-252C261.609,-252 231.609,-252 231.609,-252 225.609,-252 219.609,-246 219.609,-240 219.609,-240 219.609,-228 219.609,-228 219.609,-222 225.609,-216 231.609,-216 231.609,-216 261.609,-216 261.609,-216 267.609,-216 273.609,-222 273.609,-228 273.609,-228 273.609,-240 273.609,-240 273.609,-246 267.609,-252 261.609,-252"/>
<text text-anchor="middle" x="246.609" y="-231.5" font-family="sans" font-size="10.00">multiqc</text>
</g>
<!-- 17&#45;&gt;25 -->
<g id="edge45" class="edge"><title>17&#45;&gt;25</title>
<path fill="none" stroke="grey" stroke-width="2" d="M243.157,-359.711C243.855,-334.489 245.065,-290.76 245.851,-262.359"/>
<polygon fill="grey" stroke="grey" stroke-width="2" points="249.352,-262.389 246.13,-252.296 242.355,-262.195 249.352,-262.389"/>
</g>
<!-- 35 -->
<g id="node36" class="node"><title>35</title>
<path fill="none" stroke="#56d89a" stroke-width="2" stroke-dasharray="5,2" d="M207.609,-324C207.609,-324 137.609,-324 137.609,-324 131.609,-324 125.609,-318 125.609,-312 125.609,-312 125.609,-300 125.609,-300 125.609,-294 131.609,-288 137.609,-288 137.609,-288 207.609,-288 207.609,-288 213.609,-288 219.609,-294 219.609,-300 219.609,-300 219.609,-312 219.609,-312 219.609,-318 213.609,-324 207.609,-324"/>
<text text-anchor="middle" x="172.609" y="-303.5" font-family="sans" font-size="10.00">download_fastq</text>
</g>
<!-- 17&#45;&gt;35 -->
<g id="edge65" class="edge"><title>17&#45;&gt;35</title>
<path fill="none" stroke="grey" stroke-width="2" d="M223.481,-359.689C215.132,-351.042 205.254,-340.811 196.434,-331.676"/>
<polygon fill="grey" stroke="grey" stroke-width="2" points="198.795,-329.082 189.331,-324.319 193.759,-333.945 198.795,-329.082"/>
</g>
<!-- 18 -->
<g id="node19" class="node"><title>18</title>
<path fill="none" stroke="#59d856" stroke-width="2" d="M560.609,-108C560.609,-108 468.609,-108 468.609,-108 462.609,-108 456.609,-102 456.609,-96 456.609,-96 456.609,-84 456.609,-84 456.609,-78 462.609,-72 468.609,-72 468.609,-72 560.609,-72 560.609,-72 566.609,-72 572.609,-78 572.609,-84 572.609,-84 572.609,-96 572.609,-96 572.609,-102 566.609,-108 560.609,-108"/>
<text text-anchor="middle" x="514.609" y="-87.5" font-family="sans" font-size="10.00">make_indexed_bam</text>
</g>
<!-- 18&#45;&gt;11 -->
<g id="edge21" class="edge"><title>18&#45;&gt;11</title>
<path fill="none" stroke="grey" stroke-width="2" d="M563.522,-71.9656C599.117,-59.5694 646.556,-43.0481 678.928,-31.7743"/>
<polygon fill="grey" stroke="grey" stroke-width="2" points="680.168,-35.0487 688.461,-28.4544 677.866,-28.4381 680.168,-35.0487"/>
</g>
<!-- 29 -->
<g id="node30" class="node"><title>29</title>
<path fill="none" stroke="#59d856" stroke-width="2" stroke-dasharray="5,2" d="M962.609,-108C962.609,-108 870.609,-108 870.609,-108 864.609,-108 858.609,-102 858.609,-96 858.609,-96 858.609,-84 858.609,-84 858.609,-78 864.609,-72 870.609,-72 870.609,-72 962.609,-72 962.609,-72 968.609,-72 974.609,-78 974.609,-84 974.609,-84 974.609,-96 974.609,-96 974.609,-102 968.609,-108 962.609,-108"/>
<text text-anchor="middle" x="916.609" y="-87.5" font-family="sans" font-size="10.00">make_indexed_bam</text>
</g>
<!-- 19&#45;&gt;29 -->
<g id="edge55" class="edge"><title>19&#45;&gt;29</title>
<path fill="none" stroke="grey" stroke-width="2" d="M919.62,-143.697C919.179,-135.983 918.649,-126.712 918.158,-118.112"/>
<polygon fill="grey" stroke="grey" stroke-width="2" points="921.651,-117.888 917.586,-108.104 914.662,-118.288 921.651,-117.888"/>
</g>
<!-- 20 -->
<g id="node21" class="node"><title>20</title>
<path fill="none" stroke="#59d856" stroke-width="2" stroke-dasharray="5,2" d="M694.609,-108C694.609,-108 602.609,-108 602.609,-108 596.609,-108 590.609,-102 590.609,-96 590.609,-96 590.609,-84 590.609,-84 590.609,-78 596.609,-72 602.609,-72 602.609,-72 694.609,-72 694.609,-72 700.609,-72 706.609,-78 706.609,-84 706.609,-84 706.609,-96 706.609,-96 706.609,-102 700.609,-108 694.609,-108"/>
<text text-anchor="middle" x="648.609" y="-87.5" font-family="sans" font-size="10.00">make_indexed_bam</text>
</g>
<!-- 20&#45;&gt;11 -->
<g id="edge15" class="edge"><title>20&#45;&gt;11</title>
<path fill="none" stroke="grey" stroke-width="2" d="M665.171,-71.6966C673.284,-63.2198 683.197,-52.8636 692.08,-43.5826"/>
<polygon fill="grey" stroke="grey" stroke-width="2" points="694.851,-45.7486 699.237,-36.1043 689.794,-40.9084 694.851,-45.7486"/>
</g>
<!-- 21 -->
<g id="node22" class="node"><title>21</title>
<path fill="none" stroke="#d6d856" stroke-width="2" stroke-dasharray="5,2" d="M740.609,-473C740.609,-473 694.609,-473 694.609,-473 688.609,-473 682.609,-467 682.609,-461 682.609,-461 682.609,-449 682.609,-449 682.609,-443 688.609,-437 694.609,-437 694.609,-437 740.609,-437 740.609,-437 746.609,-437 752.609,-443 752.609,-449 752.609,-449 752.609,-461 752.609,-461 752.609,-467 746.609,-473 740.609,-473"/>
<text text-anchor="middle" x="717.609" y="-452.5" font-family="sans" font-size="10.00">make_lists</text>
</g>
<!-- 21&#45;&gt;0 -->
<g id="edge1" class="edge"><title>21&#45;&gt;0</title>
<path fill="none" stroke="grey" stroke-width="2" d="M682.186,-440.193C656.506,-430.183 621.171,-416.41 591.183,-404.721"/>
<polygon fill="grey" stroke="grey" stroke-width="2" points="592.242,-401.378 581.654,-401.007 589.7,-407.9 592.242,-401.378"/>
</g>
<!-- 21&#45;&gt;2 -->
<g id="edge4" class="edge"><title>21&#45;&gt;2</title>
<path fill="none" stroke="grey" stroke-width="2" d="M752.638,-452.251C841.835,-447.467 1084.63,-432.378 1284.61,-401 1292.63,-399.741 1301.02,-398.191 1309.29,-396.52"/>
<polygon fill="grey" stroke="grey" stroke-width="2" points="1310.22,-399.902 1319.3,-394.433 1308.79,-393.049 1310.22,-399.902"/>
</g>
<!-- 21&#45;&gt;6 -->
<g id="edge9" class="edge"><title>21&#45;&gt;6</title>
<path fill="none" stroke="grey" stroke-width="2" d="M752.737,-449.294C819.815,-440.264 970.76,-419.739 1097.61,-401 1117.68,-398.034 1139.55,-394.669 1159.3,-391.579"/>
<polygon fill="grey" stroke="grey" stroke-width="2" points="1160.08,-395 1169.42,-389.992 1158.99,-388.085 1160.08,-395"/>
</g>
<!-- 21&#45;&gt;8 -->
<g id="edge11" class="edge"><title>21&#45;&gt;8</title>
<path fill="none" stroke="grey" stroke-width="2" d="M752.673,-447.209C800.855,-437.718 890.148,-419.556 965.609,-401 967.934,-400.428 970.3,-399.834 972.687,-399.224"/>
<polygon fill="grey" stroke="grey" stroke-width="2" points="973.781,-402.555 982.572,-396.642 972.012,-395.782 973.781,-402.555"/>
</g>
<!-- 21&#45;&gt;12 -->
<g id="edge24" class="edge"><title>21&#45;&gt;12</title>
<path fill="none" stroke="grey" stroke-width="2" d="M753.032,-440.193C778.711,-430.183 814.047,-416.41 844.034,-404.721"/>
<polygon fill="grey" stroke="grey" stroke-width="2" points="845.517,-407.9 853.563,-401.007 842.975,-401.378 845.517,-407.9"/>
</g>
<!-- 21&#45;&gt;17 -->
<g id="edge32" class="edge"><title>21&#45;&gt;17</title>
<path fill="none" stroke="grey" stroke-width="2" d="M682.44,-451.598C612.323,-446.358 450.146,-431.979 305.801,-401.07"/>
<polygon fill="grey" stroke="grey" stroke-width="2" points="306.396,-397.618 295.881,-398.914 304.909,-404.458 306.396,-397.618"/>
</g>
<!-- 36 -->
<g id="node37" class="node"><title>36</title>
<path fill="none" stroke="#d85656" stroke-width="2" stroke-dasharray="5,2" d="M101.609,-401C101.609,-401 19.6088,-401 19.6088,-401 13.6088,-401 7.60877,-395 7.60877,-389 7.60877,-389 7.60877,-372 7.60877,-372 7.60877,-366 13.6088,-360 19.6088,-360 19.6088,-360 101.609,-360 101.609,-360 107.609,-360 113.609,-366 113.609,-372 113.609,-372 113.609,-389 113.609,-389 113.609,-395 107.609,-401 101.609,-401"/>
<text text-anchor="middle" x="60.6088" y="-389" font-family="sans" font-size="10.00">make_sample_list</text>
<text text-anchor="middle" x="60.6088" y="-378" font-family="sans" font-size="10.00">repl: 1</text>
<text text-anchor="middle" x="60.6088" y="-367" font-family="sans" font-size="10.00">type: WT</text>
</g>
<!-- 21&#45;&gt;36 -->
<g id="edge66" class="edge"><title>21&#45;&gt;36</title>
<path fill="none" stroke="grey" stroke-width="2" d="M682.337,-451.289C596.357,-444.514 369.185,-425.603 180.609,-401 162.067,-398.581 141.987,-395.501 123.654,-392.507"/>
<polygon fill="grey" stroke="grey" stroke-width="2" points="124.106,-389.034 113.67,-390.857 122.965,-395.941 124.106,-389.034"/>
</g>
<!-- 42 -->
<g id="node43" class="node"><title>42</title>
<path fill="none" stroke="#d85656" stroke-width="2" stroke-dasharray="5,2" d="M820.609,-401C820.609,-401 738.609,-401 738.609,-401 732.609,-401 726.609,-395 726.609,-389 726.609,-389 726.609,-372 726.609,-372 726.609,-366 732.609,-360 738.609,-360 738.609,-360 820.609,-360 820.609,-360 826.609,-360 832.609,-366 832.609,-372 832.609,-372 832.609,-389 832.609,-389 832.609,-395 826.609,-401 820.609,-401"/>
<text text-anchor="middle" x="779.609" y="-389" font-family="sans" font-size="10.00">make_sample_list</text>
<text text-anchor="middle" x="779.609" y="-378" font-family="sans" font-size="10.00">repl: 2</text>
<text text-anchor="middle" x="779.609" y="-367" font-family="sans" font-size="10.00">type: SNF2</text>
</g>
<!-- 21&#45;&gt;42 -->
<g id="edge73" class="edge"><title>21&#45;&gt;42</title>
<path fill="none" stroke="grey" stroke-width="2" d="M732.302,-436.819C739.464,-428.444 748.249,-418.171 756.296,-408.761"/>
<polygon fill="grey" stroke="grey" stroke-width="2" points="758.991,-410.994 762.831,-401.12 753.671,-406.445 758.991,-410.994"/>
</g>
<!-- 44 -->
<g id="node45" class="node"><title>44</title>
<path fill="none" stroke="#d85656" stroke-width="2" stroke-dasharray="5,2" d="M696.609,-401C696.609,-401 614.609,-401 614.609,-401 608.609,-401 602.609,-395 602.609,-389 602.609,-389 602.609,-372 602.609,-372 602.609,-366 608.609,-360 614.609,-360 614.609,-360 696.609,-360 696.609,-360 702.609,-360 708.609,-366 708.609,-372 708.609,-372 708.609,-389 708.609,-389 708.609,-395 702.609,-401 696.609,-401"/>
<text text-anchor="middle" x="655.609" y="-389" font-family="sans" font-size="10.00">make_sample_list</text>
<text text-anchor="middle" x="655.609" y="-378" font-family="sans" font-size="10.00">repl: 3</text>
<text text-anchor="middle" x="655.609" y="-367" font-family="sans" font-size="10.00">type: WT</text>
</g>
<!-- 21&#45;&gt;44 -->
<g id="edge76" class="edge"><title>21&#45;&gt;44</title>
<path fill="none" stroke="grey" stroke-width="2" d="M702.916,-436.819C695.754,-428.444 686.969,-418.171 678.921,-408.761"/>
<polygon fill="grey" stroke="grey" stroke-width="2" points="681.546,-406.445 672.387,-401.12 676.226,-410.994 681.546,-406.445"/>
</g>
<!-- 50 -->
<g id="node51" class="node"><title>50</title>
<path fill="none" stroke="#d85656" stroke-width="2" stroke-dasharray="5,2" d="M407.609,-401C407.609,-401 325.609,-401 325.609,-401 319.609,-401 313.609,-395 313.609,-389 313.609,-389 313.609,-372 313.609,-372 313.609,-366 319.609,-360 325.609,-360 325.609,-360 407.609,-360 407.609,-360 413.609,-360 419.609,-366 419.609,-372 419.609,-372 419.609,-389 419.609,-389 419.609,-395 413.609,-401 407.609,-401"/>
<text text-anchor="middle" x="366.609" y="-389" font-family="sans" font-size="10.00">make_sample_list</text>
<text text-anchor="middle" x="366.609" y="-378" font-family="sans" font-size="10.00">repl: 3</text>
<text text-anchor="middle" x="366.609" y="-367" font-family="sans" font-size="10.00">type: SNF2</text>
</g>
<!-- 21&#45;&gt;50 -->
<g id="edge87" class="edge"><title>21&#45;&gt;50</title>
<path fill="none" stroke="grey" stroke-width="2" d="M682.346,-446.716C623.321,-434.525 503.731,-409.823 429.86,-394.565"/>
<polygon fill="grey" stroke="grey" stroke-width="2" points="430.252,-391.072 419.751,-392.477 428.836,-397.927 430.252,-391.072"/>
</g>
<!-- 28 -->
<g id="node29" class="node"><title>28</title>
<path fill="none" stroke="#56d8d8" stroke-width="2" d="M537.609,-180C537.609,-180 485.609,-180 485.609,-180 479.609,-180 473.609,-174 473.609,-168 473.609,-168 473.609,-156 473.609,-156 473.609,-150 479.609,-144 485.609,-144 485.609,-144 537.609,-144 537.609,-144 543.609,-144 549.609,-150 549.609,-156 549.609,-156 549.609,-168 549.609,-168 549.609,-174 543.609,-180 537.609,-180"/>
<text text-anchor="middle" x="511.609" y="-159.5" font-family="sans" font-size="10.00">align_fastqc</text>
</g>
<!-- 22&#45;&gt;28 -->
<g id="edge52" class="edge"><title>22&#45;&gt;28</title>
<path fill="none" stroke="grey" stroke-width="2" d="M508.598,-215.697C509.038,-207.983 509.568,-198.712 510.059,-190.112"/>
<polygon fill="grey" stroke="grey" stroke-width="2" points="513.555,-190.288 510.631,-180.104 506.566,-189.888 513.555,-190.288"/>
</g>
<!-- 23&#45;&gt;11 -->
<g id="edge19" class="edge"><title>23&#45;&gt;11</title>
<path fill="none" stroke="grey" stroke-width="2" d="M766.047,-71.6966C757.933,-63.2198 748.021,-52.8636 739.138,-43.5826"/>
<polygon fill="grey" stroke="grey" stroke-width="2" points="741.423,-40.9084 731.98,-36.1043 736.366,-45.7486 741.423,-40.9084"/>
</g>
<!-- 38 -->
<g id="node39" class="node"><title>38</title>
<path fill="none" stroke="#59d856" stroke-width="2" stroke-dasharray="5,2" d="M1364.61,-108C1364.61,-108 1272.61,-108 1272.61,-108 1266.61,-108 1260.61,-102 1260.61,-96 1260.61,-96 1260.61,-84 1260.61,-84 1260.61,-78 1266.61,-72 1272.61,-72 1272.61,-72 1364.61,-72 1364.61,-72 1370.61,-72 1376.61,-78 1376.61,-84 1376.61,-84 1376.61,-96 1376.61,-96 1376.61,-102 1370.61,-108 1364.61,-108"/>
<text text-anchor="middle" x="1318.61" y="-87.5" font-family="sans" font-size="10.00">make_indexed_bam</text>
</g>
<!-- 24&#45;&gt;38 -->
<g id="edge69" class="edge"><title>24&#45;&gt;38</title>
<path fill="none" stroke="grey" stroke-width="2" d="M1318.61,-143.697C1318.61,-135.983 1318.61,-126.712 1318.61,-118.112"/>
<polygon fill="grey" stroke="grey" stroke-width="2" points="1322.11,-118.104 1318.61,-108.104 1315.11,-118.104 1322.11,-118.104"/>
</g>
<!-- 48 -->
<g id="node49" class="node"><title>48</title>
<path fill="none" stroke="#56d8d8" stroke-width="2" stroke-dasharray="5,2" d="M272.609,-180C272.609,-180 220.609,-180 220.609,-180 214.609,-180 208.609,-174 208.609,-168 208.609,-168 208.609,-156 208.609,-156 208.609,-150 214.609,-144 220.609,-144 220.609,-144 272.609,-144 272.609,-144 278.609,-144 284.609,-150 284.609,-156 284.609,-156 284.609,-168 284.609,-168 284.609,-174 278.609,-180 272.609,-180"/>
<text text-anchor="middle" x="246.609" y="-159.5" font-family="sans" font-size="10.00">align_fastqc</text>
</g>
<!-- 25&#45;&gt;48 -->
<g id="edge82" class="edge"><title>25&#45;&gt;48</title>
<path fill="none" stroke="grey" stroke-width="2" d="M246.609,-215.697C246.609,-207.983 246.609,-198.712 246.609,-190.112"/>
<polygon fill="grey" stroke="grey" stroke-width="2" points="250.109,-190.104 246.609,-180.104 243.109,-190.104 250.109,-190.104"/>
</g>
<!-- 34 -->
<g id="node35" class="node"><title>34</title>
<path fill="none" stroke="#59d856" stroke-width="2" stroke-dasharray="5,2" d="M1230.61,-108C1230.61,-108 1138.61,-108 1138.61,-108 1132.61,-108 1126.61,-102 1126.61,-96 1126.61,-96 1126.61,-84 1126.61,-84 1126.61,-78 1132.61,-72 1138.61,-72 1138.61,-72 1230.61,-72 1230.61,-72 1236.61,-72 1242.61,-78 1242.61,-84 1242.61,-84 1242.61,-96 1242.61,-96 1242.61,-102 1236.61,-108 1230.61,-108"/>
<text text-anchor="middle" x="1184.61" y="-87.5" font-family="sans" font-size="10.00">make_indexed_bam</text>
</g>
<!-- 26&#45;&gt;34 -->
<g id="edge64" class="edge"><title>26&#45;&gt;34</title>
<path fill="none" stroke="grey" stroke-width="2" d="M1184.61,-143.697C1184.61,-135.983 1184.61,-126.712 1184.61,-118.112"/>
<polygon fill="grey" stroke="grey" stroke-width="2" points="1188.11,-118.104 1184.61,-108.104 1181.11,-118.104 1188.11,-118.104"/>
</g>
<!-- 27 -->
<g id="node28" class="node"><title>27</title>
<path fill="none" stroke="#56d8d8" stroke-width="2" stroke-dasharray="5,2" d="M406.609,-180C406.609,-180 354.609,-180 354.609,-180 348.609,-180 342.609,-174 342.609,-168 342.609,-168 342.609,-156 342.609,-156 342.609,-150 348.609,-144 354.609,-144 354.609,-144 406.609,-144 406.609,-144 412.609,-144 418.609,-150 418.609,-156 418.609,-156 418.609,-168 418.609,-168 418.609,-174 412.609,-180 406.609,-180"/>
<text text-anchor="middle" x="380.609" y="-159.5" font-family="sans" font-size="10.00">align_fastqc</text>
</g>
<!-- 27&#45;&gt;15 -->
<g id="edge28" class="edge"><title>27&#45;&gt;15</title>
<path fill="none" stroke="grey" stroke-width="2" d="M380.609,-143.697C380.609,-135.983 380.609,-126.712 380.609,-118.112"/>
<polygon fill="grey" stroke="grey" stroke-width="2" points="384.109,-118.104 380.609,-108.104 377.109,-118.104 384.109,-118.104"/>
</g>
<!-- 28&#45;&gt;18 -->
<g id="edge33" class="edge"><title>28&#45;&gt;18</title>
<path fill="none" stroke="grey" stroke-width="2" d="M512.35,-143.697C512.681,-135.983 513.078,-126.712 513.447,-118.112"/>
<polygon fill="grey" stroke="grey" stroke-width="2" points="516.944,-118.245 513.876,-108.104 509.951,-117.945 516.944,-118.245"/>
</g>
<!-- 29&#45;&gt;11 -->
<g id="edge20" class="edge"><title>29&#45;&gt;11</title>
<path fill="none" stroke="grey" stroke-width="2" d="M867.696,-71.9656C832.101,-59.5694 784.661,-43.0481 752.289,-31.7743"/>
<polygon fill="grey" stroke="grey" stroke-width="2" points="753.351,-28.4381 742.757,-28.4544 751.049,-35.0487 753.351,-28.4381"/>
</g>
<!-- 30 -->
<g id="node31" class="node"><title>30</title>
<path fill="none" stroke="#56d89a" stroke-width="2" stroke-dasharray="5,2" d="M95.6088,-324C95.6088,-324 25.6088,-324 25.6088,-324 19.6088,-324 13.6088,-318 13.6088,-312 13.6088,-312 13.6088,-300 13.6088,-300 13.6088,-294 19.6088,-288 25.6088,-288 25.6088,-288 95.6088,-288 95.6088,-288 101.609,-288 107.609,-294 107.609,-300 107.609,-300 107.609,-312 107.609,-312 107.609,-318 101.609,-324 95.6088,-324"/>
<text text-anchor="middle" x="60.6088" y="-303.5" font-family="sans" font-size="10.00">download_fastq</text>
</g>
<!-- 31 -->
<g id="node32" class="node"><title>31</title>
<path fill="none" stroke="#56d8d8" stroke-width="2" stroke-dasharray="5,2" d="M138.609,-180C138.609,-180 86.6088,-180 86.6088,-180 80.6088,-180 74.6088,-174 74.6088,-168 74.6088,-168 74.6088,-156 74.6088,-156 74.6088,-150 80.6088,-144 86.6088,-144 86.6088,-144 138.609,-144 138.609,-144 144.609,-144 150.609,-150 150.609,-156 150.609,-156 150.609,-168 150.609,-168 150.609,-174 144.609,-180 138.609,-180"/>
<text text-anchor="middle" x="112.609" y="-159.5" font-family="sans" font-size="10.00">align_fastqc</text>
</g>
<!-- 30&#45;&gt;31 -->
<g id="edge58" class="edge"><title>30&#45;&gt;31</title>
<path fill="none" stroke="grey" stroke-width="2" d="M73.541,-287.677C80.4231,-277.702 88.4971,-264.665 93.6088,-252 101.629,-232.13 106.484,-208.335 109.276,-190.35"/>
<polygon fill="grey" stroke="grey" stroke-width="2" points="112.77,-190.643 110.724,-180.248 105.841,-189.65 112.77,-190.643"/>
</g>
<!-- 37 -->
<g id="node38" class="node"><title>37</title>
<path fill="none" stroke="#97d856" stroke-width="2" stroke-dasharray="5,2" d="M72.6088,-252C72.6088,-252 42.6088,-252 42.6088,-252 36.6088,-252 30.6088,-246 30.6088,-240 30.6088,-240 30.6088,-228 30.6088,-228 30.6088,-222 36.6088,-216 42.6088,-216 42.6088,-216 72.6088,-216 72.6088,-216 78.6088,-216 84.6088,-222 84.6088,-228 84.6088,-228 84.6088,-240 84.6088,-240 84.6088,-246 78.6088,-252 72.6088,-252"/>
<text text-anchor="middle" x="57.6088" y="-231.5" font-family="sans" font-size="10.00">multiqc</text>
</g>
<!-- 30&#45;&gt;37 -->
<g id="edge68" class="edge"><title>30&#45;&gt;37</title>
<path fill="none" stroke="grey" stroke-width="2" d="M59.8672,-287.697C59.5366,-279.983 59.1393,-270.712 58.7707,-262.112"/>
<polygon fill="grey" stroke="grey" stroke-width="2" points="62.2669,-261.945 58.3418,-252.104 55.2733,-262.245 62.2669,-261.945"/>
</g>
<!-- 31&#45;&gt;4 -->
<g id="edge6" class="edge"><title>31&#45;&gt;4</title>
<path fill="none" stroke="grey" stroke-width="2" d="M112.609,-143.697C112.609,-135.983 112.609,-126.712 112.609,-118.112"/>
<polygon fill="grey" stroke="grey" stroke-width="2" points="116.109,-118.104 112.609,-108.104 109.109,-118.104 116.109,-118.104"/>
</g>
<!-- 32 -->
<g id="node33" class="node"><title>32</title>
<path fill="none" stroke="#59d856" stroke-width="2" stroke-dasharray="5,2" d="M1096.61,-108C1096.61,-108 1004.61,-108 1004.61,-108 998.609,-108 992.609,-102 992.609,-96 992.609,-96 992.609,-84 992.609,-84 992.609,-78 998.609,-72 1004.61,-72 1004.61,-72 1096.61,-72 1096.61,-72 1102.61,-72 1108.61,-78 1108.61,-84 1108.61,-84 1108.61,-96 1108.61,-96 1108.61,-102 1102.61,-108 1096.61,-108"/>
<text text-anchor="middle" x="1050.61" y="-87.5" font-family="sans" font-size="10.00">make_indexed_bam</text>
</g>
<!-- 32&#45;&gt;11 -->
<g id="edge23" class="edge"><title>32&#45;&gt;11</title>
<path fill="none" stroke="grey" stroke-width="2" d="M992.55,-74.0673C989.529,-73.3535 986.535,-72.6602 983.609,-72 901.585,-53.4972 804.638,-35.2034 752.775,-25.7029"/>
<polygon fill="grey" stroke="grey" stroke-width="2" points="753.183,-22.2197 742.718,-23.8674 751.927,-29.106 753.183,-22.2197"/>
</g>
<!-- 33 -->
<g id="node34" class="node"><title>33</title>
<path fill="none" stroke="#56d8d8" stroke-width="2" stroke-dasharray="5,2" d="M658.609,-180C658.609,-180 606.609,-180 606.609,-180 600.609,-180 594.609,-174 594.609,-168 594.609,-168 594.609,-156 594.609,-156 594.609,-150 600.609,-144 606.609,-144 606.609,-144 658.609,-144 658.609,-144 664.609,-144 670.609,-150 670.609,-156 670.609,-156 670.609,-168 670.609,-168 670.609,-174 664.609,-180 658.609,-180"/>
<text text-anchor="middle" x="632.609" y="-159.5" font-family="sans" font-size="10.00">align_fastqc</text>
</g>
<!-- 33&#45;&gt;20 -->
<g id="edge37" class="edge"><title>33&#45;&gt;20</title>
<path fill="none" stroke="grey" stroke-width="2" d="M636.564,-143.697C638.327,-135.983 640.446,-126.712 642.412,-118.112"/>
<polygon fill="grey" stroke="grey" stroke-width="2" points="645.883,-118.633 644.699,-108.104 639.059,-117.073 645.883,-118.633"/>
</g>
<!-- 34&#45;&gt;11 -->
<g id="edge18" class="edge"><title>34&#45;&gt;11</title>
<path fill="none" stroke="grey" stroke-width="2" d="M1126.6,-73.8372C1123.56,-73.1835 1120.56,-72.566 1117.61,-72 984.782,-46.4841 824.89,-29.4144 753.381,-22.4856"/>
<polygon fill="grey" stroke="grey" stroke-width="2" points="753.371,-18.9687 743.083,-21.499 752.703,-25.9368 753.371,-18.9687"/>
</g>
<!-- 35&#45;&gt;25 -->
<g id="edge44" class="edge"><title>35&#45;&gt;25</title>
<path fill="none" stroke="grey" stroke-width="2" d="M190.901,-287.697C200.041,-279.05 211.249,-268.449 221.209,-259.027"/>
<polygon fill="grey" stroke="grey" stroke-width="2" points="223.668,-261.519 228.527,-252.104 218.857,-256.434 223.668,-261.519"/>
</g>
<!-- 35&#45;&gt;48 -->
<g id="edge81" class="edge"><title>35&#45;&gt;48</title>
<path fill="none" stroke="grey" stroke-width="2" d="M178.811,-287.812C185.662,-269.542 197.477,-240.032 210.609,-216 215.676,-206.727 221.94,-197.038 227.814,-188.518"/>
<polygon fill="grey" stroke="grey" stroke-width="2" points="230.827,-190.319 233.729,-180.129 225.106,-186.285 230.827,-190.319"/>
</g>
<!-- 36&#45;&gt;30 -->
<g id="edge56" class="edge"><title>36&#45;&gt;30</title>
<path fill="none" stroke="grey" stroke-width="2" d="M60.6088,-359.689C60.6088,-351.907 60.6088,-342.842 60.6088,-334.447"/>
<polygon fill="grey" stroke="grey" stroke-width="2" points="64.1089,-334.319 60.6088,-324.319 57.1089,-334.32 64.1089,-334.319"/>
</g>
<!-- 36&#45;&gt;37 -->
<g id="edge67" class="edge"><title>36&#45;&gt;37</title>
<path fill="none" stroke="grey" stroke-width="2" d="M32.6898,-359.752C21.7592,-350.321 10.4546,-338.024 4.60877,-324 -1.5473,-309.232 -1.51417,-302.782 4.60877,-288 9.15357,-277.028 17.194,-267.143 25.66,-258.964"/>
<polygon fill="grey" stroke="grey" stroke-width="2" points="28.0456,-261.526 33.1322,-252.232 23.3601,-256.326 28.0456,-261.526"/>
</g>
<!-- 37&#45;&gt;31 -->
<g id="edge57" class="edge"><title>37&#45;&gt;31</title>
<path fill="none" stroke="grey" stroke-width="2" d="M71.2043,-215.697C77.7314,-207.389 85.6768,-197.277 92.8553,-188.141"/>
<polygon fill="grey" stroke="grey" stroke-width="2" points="95.7435,-190.13 99.1696,-180.104 90.2393,-185.805 95.7435,-190.13"/>
</g>
<!-- 38&#45;&gt;11 -->
<g id="edge22" class="edge"><title>38&#45;&gt;11</title>
<path fill="none" stroke="grey" stroke-width="2" d="M1260.25,-73.6454C1257.34,-73.0507 1254.45,-72.4973 1251.61,-72 1066.15,-39.4922 840.845,-25.3337 753.103,-20.7703"/>
<polygon fill="grey" stroke="grey" stroke-width="2" points="753.02,-17.2616 742.855,-20.2487 752.664,-24.2526 753.02,-17.2616"/>
</g>
<!-- 39 -->
<g id="node40" class="node"><title>39</title>
<path fill="none" stroke="#569ad8" stroke-width="2" stroke-dasharray="5,2" d="M758.609,-252C758.609,-252 674.609,-252 674.609,-252 668.609,-252 662.609,-246 662.609,-240 662.609,-240 662.609,-228 662.609,-228 662.609,-222 668.609,-216 674.609,-216 674.609,-216 758.609,-216 758.609,-216 764.609,-216 770.609,-222 770.609,-228 770.609,-228 770.609,-240 770.609,-240 770.609,-246 764.609,-252 758.609,-252"/>
<text text-anchor="middle" x="716.609" y="-231.5" font-family="sans" font-size="10.00">make_ref_genome</text>
</g>
<!-- 39&#45;&gt;16 -->
<g id="edge31" class="edge"><title>39&#45;&gt;16</title>
<path fill="none" stroke="grey" stroke-width="2" d="M734.901,-215.697C744.041,-207.05 755.249,-196.449 765.209,-187.027"/>
<polygon fill="grey" stroke="grey" stroke-width="2" points="767.668,-189.519 772.527,-180.104 762.857,-184.434 767.668,-189.519"/>
</g>
<!-- 39&#45;&gt;19 -->
<g id="edge36" class="edge"><title>39&#45;&gt;19</title>
<path fill="none" stroke="grey" stroke-width="2" d="M766.252,-215.966C798.637,-204.853 840.683,-190.425 872.713,-179.435"/>
<polygon fill="grey" stroke="grey" stroke-width="2" points="873.987,-182.698 882.309,-176.142 871.715,-176.077 873.987,-182.698"/>
</g>
<!-- 39&#45;&gt;24 -->
<g id="edge43" class="edge"><title>39&#45;&gt;24</title>
<path fill="none" stroke="grey" stroke-width="2" d="M770.742,-223.068C785.873,-220.516 802.351,-217.944 817.609,-216 1000.82,-192.653 1048.72,-205.746 1231.61,-180 1244.23,-178.223 1257.8,-175.815 1270.38,-173.371"/>
<polygon fill="grey" stroke="grey" stroke-width="2" points="1271.09,-176.799 1280.21,-171.415 1269.72,-169.933 1271.09,-176.799"/>
</g>
<!-- 39&#45;&gt;26 -->
<g id="edge48" class="edge"><title>39&#45;&gt;26</title>
<path fill="none" stroke="grey" stroke-width="2" d="M770.798,-223.48C785.931,-220.93 802.394,-218.258 817.609,-216 941.719,-197.584 973.751,-200.042 1097.61,-180 1110.32,-177.944 1124.01,-175.417 1136.68,-172.946"/>
<polygon fill="grey" stroke="grey" stroke-width="2" points="1137.46,-176.36 1146.59,-170.986 1136.1,-169.493 1137.46,-176.36"/>
</g>
<!-- 39&#45;&gt;27 -->
<g id="edge51" class="edge"><title>39&#45;&gt;27</title>
<path fill="none" stroke="grey" stroke-width="2" d="M662.378,-218.088C659.417,-217.361 656.479,-216.66 653.609,-216 570.271,-196.848 548.516,-196.481 464.609,-180 452.978,-177.715 440.451,-175.206 428.713,-172.834"/>
<polygon fill="grey" stroke="grey" stroke-width="2" points="429.139,-169.349 418.643,-170.793 427.748,-176.21 429.139,-169.349"/>
</g>
<!-- 39&#45;&gt;28 -->
<g id="edge54" class="edge"><title>39&#45;&gt;28</title>
<path fill="none" stroke="grey" stroke-width="2" d="M666.722,-215.966C634.071,-204.816 591.647,-190.33 559.421,-179.326"/>
<polygon fill="grey" stroke="grey" stroke-width="2" points="560.364,-175.95 549.77,-176.031 558.102,-182.574 560.364,-175.95"/>
</g>
<!-- 39&#45;&gt;31 -->
<g id="edge59" class="edge"><title>39&#45;&gt;31</title>
<path fill="none" stroke="grey" stroke-width="2" d="M662.454,-217.707C659.474,-217.078 656.511,-216.502 653.609,-216 454.162,-181.487 400.15,-207.453 199.609,-180 186.976,-178.271 173.407,-175.88 160.832,-173.437"/>
<polygon fill="grey" stroke="grey" stroke-width="2" points="161.488,-169.999 150.997,-171.479 160.121,-176.864 161.488,-169.999"/>
</g>
<!-- 39&#45;&gt;33 -->
<g id="edge63" class="edge"><title>39&#45;&gt;33</title>
<path fill="none" stroke="grey" stroke-width="2" d="M695.845,-215.697C685.367,-206.965 672.497,-196.24 661.109,-186.75"/>
<polygon fill="grey" stroke="grey" stroke-width="2" points="663.057,-183.817 653.134,-180.104 658.576,-189.195 663.057,-183.817"/>
</g>
<!-- 39&#45;&gt;48 -->
<g id="edge83" class="edge"><title>39&#45;&gt;48</title>
<path fill="none" stroke="grey" stroke-width="2" d="M662.434,-217.822C659.458,-217.163 656.502,-216.55 653.609,-216 513.006,-189.28 475.067,-201.741 333.609,-180 321.006,-178.063 307.448,-175.599 294.874,-173.152"/>
<polygon fill="grey" stroke="grey" stroke-width="2" points="295.526,-169.714 285.037,-171.204 294.166,-176.58 295.526,-169.714"/>
</g>
<!-- 39&#45;&gt;49 -->
<g id="edge86" class="edge"><title>39&#45;&gt;49</title>
<path fill="none" stroke="grey" stroke-width="2" d="M770.643,-221.675C834.828,-208.224 940.925,-185.988 1002.43,-173.098"/>
<polygon fill="grey" stroke="grey" stroke-width="2" points="1003.2,-176.513 1012.27,-171.036 1001.76,-169.661 1003.2,-176.513"/>
</g>
<!-- 40 -->
<g id="node41" class="node"><title>40</title>
<path fill="none" stroke="#97d856" stroke-width="2" stroke-dasharray="5,2" d="M868.609,-252C868.609,-252 838.609,-252 838.609,-252 832.609,-252 826.609,-246 826.609,-240 826.609,-240 826.609,-228 826.609,-228 826.609,-222 832.609,-216 838.609,-216 838.609,-216 868.609,-216 868.609,-216 874.609,-216 880.609,-222 880.609,-228 880.609,-228 880.609,-240 880.609,-240 880.609,-246 874.609,-252 868.609,-252"/>
<text text-anchor="middle" x="853.609" y="-231.5" font-family="sans" font-size="10.00">multiqc</text>
</g>
<!-- 40&#45;&gt;16 -->
<g id="edge30" class="edge"><title>40&#45;&gt;16</title>
<path fill="none" stroke="grey" stroke-width="2" d="M838.036,-215.697C830.407,-207.22 821.086,-196.864 812.733,-187.583"/>
<polygon fill="grey" stroke="grey" stroke-width="2" points="815.294,-185.196 806.003,-180.104 810.091,-189.879 815.294,-185.196"/>
</g>
<!-- 41&#45;&gt;22 -->
<g id="edge39" class="edge"><title>41&#45;&gt;22</title>
<path fill="none" stroke="grey" stroke-width="2" d="M481.26,-287.697C485.245,-279.728 490.059,-270.1 494.477,-261.264"/>
<polygon fill="grey" stroke="grey" stroke-width="2" points="497.715,-262.614 499.057,-252.104 491.454,-259.483 497.715,-262.614"/>
</g>
<!-- 41&#45;&gt;28 -->
<g id="edge53" class="edge"><title>41&#45;&gt;28</title>
<path fill="none" stroke="grey" stroke-width="2" d="M469.141,-287.753C466.201,-269.434 463.608,-239.883 471.609,-216 474.959,-205.998 481.025,-196.376 487.436,-188.138"/>
<polygon fill="grey" stroke="grey" stroke-width="2" points="490.169,-190.326 493.876,-180.401 484.789,-185.848 490.169,-190.326"/>
</g>
<!-- 42&#45;&gt;40 -->
<g id="edge71" class="edge"><title>42&#45;&gt;40</title>
<path fill="none" stroke="grey" stroke-width="2" d="M800.899,-359.863C810.565,-349.936 821.418,-337.208 828.609,-324 839.13,-304.676 845.552,-280.525 849.248,-262.259"/>
<polygon fill="grey" stroke="grey" stroke-width="2" points="852.719,-262.738 851.119,-252.265 845.838,-261.45 852.719,-262.738"/>
</g>
<!-- 46 -->
<g id="node47" class="node"><title>46</title>
<path fill="none" stroke="#56d89a" stroke-width="2" stroke-dasharray="5,2" d="M807.609,-324C807.609,-324 737.609,-324 737.609,-324 731.609,-324 725.609,-318 725.609,-312 725.609,-312 725.609,-300 725.609,-300 725.609,-294 731.609,-288 737.609,-288 737.609,-288 807.609,-288 807.609,-288 813.609,-288 819.609,-294 819.609,-300 819.609,-300 819.609,-312 819.609,-312 819.609,-318 813.609,-324 807.609,-324"/>
<text text-anchor="middle" x="772.609" y="-303.5" font-family="sans" font-size="10.00">download_fastq</text>
</g>
<!-- 42&#45;&gt;46 -->
<g id="edge78" class="edge"><title>42&#45;&gt;46</title>
<path fill="none" stroke="grey" stroke-width="2" d="M777.696,-359.689C776.945,-351.907 776.069,-342.842 775.259,-334.447"/>
<polygon fill="grey" stroke="grey" stroke-width="2" points="778.726,-333.937 774.281,-324.319 771.758,-334.61 778.726,-333.937"/>
</g>
<!-- 43 -->
<g id="node44" class="node"><title>43</title>
<path fill="none" stroke="#97d856" stroke-width="2" stroke-dasharray="5,2" d="M632.609,-252C632.609,-252 602.609,-252 602.609,-252 596.609,-252 590.609,-246 590.609,-240 590.609,-240 590.609,-228 590.609,-228 590.609,-222 596.609,-216 602.609,-216 602.609,-216 632.609,-216 632.609,-216 638.609,-216 644.609,-222 644.609,-228 644.609,-228 644.609,-240 644.609,-240 644.609,-246 638.609,-252 632.609,-252"/>
<text text-anchor="middle" x="617.609" y="-231.5" font-family="sans" font-size="10.00">multiqc</text>
</g>
<!-- 43&#45;&gt;33 -->
<g id="edge61" class="edge"><title>43&#45;&gt;33</title>
<path fill="none" stroke="grey" stroke-width="2" d="M621.317,-215.697C622.97,-207.983 624.956,-198.712 626.799,-190.112"/>
<polygon fill="grey" stroke="grey" stroke-width="2" points="630.27,-190.616 628.944,-180.104 623.426,-189.149 630.27,-190.616"/>
</g>
<!-- 44&#45;&gt;43 -->
<g id="edge75" class="edge"><title>44&#45;&gt;43</title>
<path fill="none" stroke="grey" stroke-width="2" d="M667.859,-359.892C678.067,-340.883 689.344,-311.548 678.609,-288 673.053,-275.812 663.156,-265.343 652.929,-257.006"/>
<polygon fill="grey" stroke="grey" stroke-width="2" points="654.815,-254.044 644.734,-250.785 650.583,-259.619 654.815,-254.044"/>
</g>
<!-- 51 -->
<g id="node52" class="node"><title>51</title>
<path fill="none" stroke="#56d89a" stroke-width="2" stroke-dasharray="5,2" d="M657.609,-324C657.609,-324 587.609,-324 587.609,-324 581.609,-324 575.609,-318 575.609,-312 575.609,-312 575.609,-300 575.609,-300 575.609,-294 581.609,-288 587.609,-288 587.609,-288 657.609,-288 657.609,-288 663.609,-288 669.609,-294 669.609,-300 669.609,-300 669.609,-312 669.609,-312 669.609,-318 663.609,-324 657.609,-324"/>
<text text-anchor="middle" x="622.609" y="-303.5" font-family="sans" font-size="10.00">download_fastq</text>
</g>
<!-- 44&#45;&gt;51 -->
<g id="edge88" class="edge"><title>44&#45;&gt;51</title>
<path fill="none" stroke="grey" stroke-width="2" d="M646.591,-359.689C642.931,-351.647 638.647,-342.236 634.721,-333.61"/>
<polygon fill="grey" stroke="grey" stroke-width="2" points="637.82,-331.971 630.492,-324.319 631.449,-334.871 637.82,-331.971"/>
</g>
<!-- 45 -->
<g id="node46" class="node"><title>45</title>
<path fill="none" stroke="#56d89a" stroke-width="2" stroke-dasharray="5,2" d="M395.609,-324C395.609,-324 325.609,-324 325.609,-324 319.609,-324 313.609,-318 313.609,-312 313.609,-312 313.609,-300 313.609,-300 313.609,-294 319.609,-288 325.609,-288 325.609,-288 395.609,-288 395.609,-288 401.609,-288 407.609,-294 407.609,-300 407.609,-300 407.609,-312 407.609,-312 407.609,-318 401.609,-324 395.609,-324"/>
<text text-anchor="middle" x="360.609" y="-303.5" font-family="sans" font-size="10.00">download_fastq</text>
</g>
<!-- 45&#45;&gt;27 -->
<g id="edge50" class="edge"><title>45&#45;&gt;27</title>
<path fill="none" stroke="grey" stroke-width="2" d="M363.021,-287.871C366.43,-263.67 372.692,-219.211 376.751,-190.393"/>
<polygon fill="grey" stroke="grey" stroke-width="2" points="380.259,-190.58 378.188,-180.189 373.327,-189.603 380.259,-190.58"/>
</g>
<!-- 52 -->
<g id="node53" class="node"><title>52</title>
<path fill="none" stroke="#97d856" stroke-width="2" stroke-dasharray="5,2" d="M340.609,-252C340.609,-252 310.609,-252 310.609,-252 304.609,-252 298.609,-246 298.609,-240 298.609,-240 298.609,-228 298.609,-228 298.609,-222 304.609,-216 310.609,-216 310.609,-216 340.609,-216 340.609,-216 346.609,-216 352.609,-222 352.609,-228 352.609,-228 352.609,-240 352.609,-240 352.609,-246 346.609,-252 340.609,-252"/>
<text text-anchor="middle" x="325.609" y="-231.5" font-family="sans" font-size="10.00">multiqc</text>
</g>
<!-- 45&#45;&gt;52 -->
<g id="edge90" class="edge"><title>45&#45;&gt;52</title>
<path fill="none" stroke="grey" stroke-width="2" d="M351.957,-287.697C347.973,-279.728 343.159,-270.1 338.741,-261.264"/>
<polygon fill="grey" stroke="grey" stroke-width="2" points="341.764,-259.483 334.161,-252.104 335.503,-262.614 341.764,-259.483"/>
</g>
<!-- 46&#45;&gt;16 -->
<g id="edge29" class="edge"><title>46&#45;&gt;16</title>
<path fill="none" stroke="grey" stroke-width="2" d="M774.915,-287.819C776.298,-277.449 778.079,-263.968 779.609,-252 782.257,-231.282 785.151,-207.837 787.305,-190.212"/>
<polygon fill="grey" stroke="grey" stroke-width="2" points="790.806,-190.417 788.542,-180.067 783.857,-189.57 790.806,-190.417"/>
</g>
<!-- 46&#45;&gt;40 -->
<g id="edge70" class="edge"><title>46&#45;&gt;40</title>
<path fill="none" stroke="grey" stroke-width="2" d="M792.631,-287.697C802.734,-278.965 815.145,-268.24 826.126,-258.75"/>
<polygon fill="grey" stroke="grey" stroke-width="2" points="828.539,-261.291 833.817,-252.104 823.962,-255.995 828.539,-261.291"/>
</g>
<!-- 47&#45;&gt;19 -->
<g id="edge34" class="edge"><title>47&#45;&gt;19</title>
<path fill="none" stroke="grey" stroke-width="2" d="M924.373,-215.697C923.822,-207.983 923.16,-198.712 922.545,-190.112"/>
<polygon fill="grey" stroke="grey" stroke-width="2" points="926.034,-189.83 921.831,-180.104 919.052,-190.328 926.034,-189.83"/>
</g>
<!-- 48&#45;&gt;10 -->
<g id="edge13" class="edge"><title>48&#45;&gt;10</title>
<path fill="none" stroke="grey" stroke-width="2" d="M246.609,-143.697C246.609,-135.983 246.609,-126.712 246.609,-118.112"/>
<polygon fill="grey" stroke="grey" stroke-width="2" points="250.109,-118.104 246.609,-108.104 243.109,-118.104 250.109,-118.104"/>
</g>
<!-- 49&#45;&gt;32 -->
<g id="edge60" class="edge"><title>49&#45;&gt;32</title>
<path fill="none" stroke="grey" stroke-width="2" d="M1050.61,-143.697C1050.61,-135.983 1050.61,-126.712 1050.61,-118.112"/>
<polygon fill="grey" stroke="grey" stroke-width="2" points="1054.11,-118.104 1050.61,-108.104 1047.11,-118.104 1054.11,-118.104"/>
</g>
<!-- 50&#45;&gt;45 -->
<g id="edge77" class="edge"><title>50&#45;&gt;45</title>
<path fill="none" stroke="grey" stroke-width="2" d="M364.969,-359.689C364.325,-351.907 363.575,-342.842 362.88,-334.447"/>
<polygon fill="grey" stroke="grey" stroke-width="2" points="366.355,-333.997 362.042,-324.319 359.379,-334.574 366.355,-333.997"/>
</g>
<!-- 50&#45;&gt;52 -->
<g id="edge89" class="edge"><title>50&#45;&gt;52</title>
<path fill="none" stroke="grey" stroke-width="2" d="M335.113,-359.837C323.228,-350.572 311.034,-338.376 304.609,-324 295.644,-303.944 302.507,-279.567 310.705,-261.399"/>
<polygon fill="grey" stroke="grey" stroke-width="2" points="314.048,-262.532 315.305,-252.012 307.762,-259.452 314.048,-262.532"/>
</g>
<!-- 51&#45;&gt;33 -->
<g id="edge62" class="edge"><title>51&#45;&gt;33</title>
<path fill="none" stroke="grey" stroke-width="2" d="M604.44,-287.677C595.724,-278.097 586.197,-265.43 581.609,-252 576.436,-236.859 575.628,-230.84 581.609,-216 585.957,-205.209 593.671,-195.386 601.802,-187.209"/>
<polygon fill="grey" stroke="grey" stroke-width="2" points="604.399,-189.572 609.304,-180.181 599.613,-184.464 604.399,-189.572"/>
</g>
<!-- 51&#45;&gt;43 -->
<g id="edge74" class="edge"><title>51&#45;&gt;43</title>
<path fill="none" stroke="grey" stroke-width="2" d="M621.373,-287.697C620.822,-279.983 620.16,-270.712 619.545,-262.112"/>
<polygon fill="grey" stroke="grey" stroke-width="2" points="623.034,-261.83 618.831,-252.104 616.052,-262.328 623.034,-261.83"/>
</g>
<!-- 52&#45;&gt;27 -->
<g id="edge49" class="edge"><title>52&#45;&gt;27</title>
<path fill="none" stroke="grey" stroke-width="2" d="M339.204,-215.697C345.731,-207.389 353.677,-197.277 360.855,-188.141"/>
<polygon fill="grey" stroke="grey" stroke-width="2" points="363.744,-190.13 367.17,-180.104 358.239,-185.805 363.744,-190.13"/>
</g>
</g>
</svg>
